<svg width="18" height="18" viewBox="0 0 18 18" fill="none" xmlns="http://www.w3.org/2000/svg">
<path d="M16.8574 11.085C17.4858 11.0851 17.9999 11.6018 18 12.2334C18 15.4153 15.4227 18 12.2627 18H5.7373C2.57159 18 0 15.4095 0 12.2334C0.000120876 11.6018 0.514207 11.0851 1.14258 11.085C1.77108 11.085 2.28601 11.6017 2.28613 12.2334C2.28613 14.146 3.83445 15.7031 5.7373 15.7031H12.2627C14.1656 15.7031 15.7139 14.146 15.7139 12.2334C15.714 11.6017 16.2289 11.085 16.8574 11.085ZM9.0166 0C9.68517 0 10.2285 0.551413 10.2285 1.21191V9.52832L13.7422 6.04199C14.2108 5.57677 15.0285 5.57677 15.4971 6.04199C15.9827 6.53015 15.9827 7.30563 15.4971 7.78809L10.0225 13.2217C9.82252 13.4341 9.58836 13.6698 9.1543 13.7617C9.08016 13.7846 9.00578 13.7842 8.93164 13.7842C8.40617 13.7842 8.02875 13.4056 7.88574 13.2676V13.2617L2.52539 7.94336C2.27968 7.70213 2.14272 7.34547 2.14844 6.99512C2.15429 6.64493 2.32026 6.30667 2.58301 6.07129C3.09717 5.62342 3.8795 5.63997 4.36523 6.12207L7.79395 9.52832V1.21191C7.79395 0.540027 8.34816 0.000161438 9.0166 0Z" fill="#2A2C31"/>
</svg>
