<svg width="14" height="14" viewBox="0 0 14 14" fill="none" xmlns="http://www.w3.org/2000/svg">
<path d="M0.0316016 7.15878C0.123116 7.60463 0.364381 7.84017 0.580687 8.04206L6.0965 13.6278C6.58735 14.1241 7.3777 14.1241 7.86855 13.6278C8.10981 13.3922 8.2346 13.0726 8.2346 12.7277C8.2346 12.3912 8.10149 12.0715 7.86855 11.8275L4.32445 8.24395L12.777 8.24395C13.4509 8.24395 14 7.68875 14 6.99895C14 6.30915 13.4509 5.76235 12.777 5.76235L4.32445 5.76235L7.78535 2.26288C8.2762 1.76656 8.29284 0.967402 7.83527 0.445846C7.594 0.176656 7.25291 0.00841161 6.89517 -6.21124e-07L6.85357 -6.24761e-07C6.50415 -6.55308e-07 6.17969 0.134593 5.93011 0.386959L0.522451 5.85489C0.364381 6.01472 -0.109831 6.49422 0.0232807 7.15037L0.0316016 7.15878Z" fill="#ACB1C6"/>
</svg>
