<svg width="14" height="20" viewBox="0 0 14 20" fill="none" xmlns="http://www.w3.org/2000/svg">
<path d="M10.5008 6.99735C10.5008 5.06705 8.93109 3.49735 7.00079 3.49735C5.07049 3.49735 3.50079 5.06705 3.50079 6.99735C3.50079 8.92765 5.07049 10.4974 7.00079 10.4974C8.93109 10.4974 10.5008 8.92765 10.5008 6.99735ZM7.00079 8.74735C6.03607 8.74735 5.25079 7.96207 5.25079 6.99735C5.25079 6.03263 6.03607 5.24735 7.00079 5.24735C7.96551 5.24735 8.75079 6.03263 8.75079 6.99735C8.75079 7.96207 7.96551 8.74735 7.00079 8.74735ZM12.2508 17.4974H8.89648L9.57794 15.8627C10.1684 14.4451 11.0579 13.0506 12.3755 11.474C13.424 10.2213 14.0008 8.63114 14.0008 6.99735C14.0008 4.89872 13.0711 2.92911 11.4501 1.59269C9.83087 0.258824 7.70404 -0.27267 5.60284 0.133214C2.78473 0.681797 0.5733 2.96073 0.0999114 5.80448C-0.229922 7.79032 0.263119 9.74283 1.48675 11.3023C3.01629 13.2531 3.99725 14.839 4.66632 16.4455L5.10499 17.4973H1.75079C1.26715 17.4973 0.87579 17.8887 0.87579 18.3723C0.87579 18.856 1.26715 19.2473 1.75079 19.2473H12.2508C12.7344 19.2473 13.1258 18.856 13.1258 18.3723C13.1258 17.8887 12.7344 17.4974 12.2508 17.4974ZM6.28131 15.7721C5.54901 14.0144 4.49542 12.3029 2.86334 10.2222C1.94647 9.05326 1.57818 7.58695 1.82598 6.09159C2.17462 3.99808 3.86566 2.25406 5.9378 1.85074C6.28729 1.78238 6.63848 1.74906 6.98626 1.74906C8.20904 1.74906 9.3908 2.16349 10.3376 2.94364C11.5535 3.94596 12.2508 5.42337 12.2508 6.99735C12.2508 8.22184 11.8184 9.413 11.0331 10.3512C9.59844 12.0671 8.62261 13.6051 7.96295 15.1894L7.00079 17.4973L6.28131 15.7721Z" fill="white"/>
</svg>
