<svg width="14" height="14" viewBox="0 0 14 14" fill="none" xmlns="http://www.w3.org/2000/svg">
<path d="M13.9684 6.84122C13.8769 6.39537 13.6356 6.15983 13.4193 5.95794L7.9035 0.37224C7.41265 -0.12408 6.6223 -0.12408 6.13145 0.37224C5.89019 0.607781 5.7654 0.927445 5.7654 1.27234C5.7654 1.60883 5.89851 1.9285 6.13145 2.17245L9.67555 5.75605H1.22296C0.549085 5.75605 0 6.31125 0 7.00105C0 7.69085 0.549085 8.23765 1.22296 8.23765H9.67555L6.21465 11.7371C5.7238 12.2334 5.70716 13.0326 6.16473 13.5542C6.406 13.8233 6.7471 13.9916 7.10483 14H7.14643C7.49585 14 7.82031 13.8654 8.06989 13.613L13.4775 8.14511C13.6356 7.98528 14.1098 7.50578 13.9767 6.84963L13.9684 6.84122Z" fill="#273D89"/>
</svg>
