<svg width="17" height="17" viewBox="0 0 17 17" fill="none" xmlns="http://www.w3.org/2000/svg">
<path d="M7.55566 0C11.7285 2.40027e-05 15.1113 3.46236 15.1113 7.7334C15.1113 9.41786 14.5827 10.975 13.6895 12.2451L16.7236 15.3496C17.0923 15.7271 17.0923 16.3393 16.7236 16.7168C16.3549 17.0943 15.7565 17.0942 15.3877 16.7168L12.4033 13.6631C11.0911 14.7882 9.40133 15.4668 7.55566 15.4668C3.38281 15.4668 0 12.0045 0 7.7334C7.09992e-05 3.46235 3.38285 0 7.55566 0ZM7.55566 1.93359C4.42607 1.93359 1.88874 4.53013 1.88867 7.7334C1.88867 10.9367 4.42602 13.5332 7.55566 13.5332C10.6853 13.5332 13.2227 10.9367 13.2227 7.7334C13.2226 4.53014 10.6852 1.93362 7.55566 1.93359Z" fill="#2A2C31"/>
</svg>
